<svg width="17" height="17" viewBox="0 0 17 17" fill="none" xmlns="http://www.w3.org/2000/svg">
<path d="M6.19678 1.37695H3.44266V2.75401H2.0656V4.13107H0.688538V8.26226H2.0656V9.63932H3.44266V11.0164H4.81972V12.3934H6.19678V13.7705H7.57384V15.1476H8.9509V13.7705H10.328V12.3934H11.705V11.0164H13.0821V9.63932H14.4591V8.26226H15.8362V4.13107H14.4591V2.75401H13.0821V1.37695H10.328V2.75401H8.9509V4.13107H7.57384V2.75401H6.19678V1.37695ZM6.19678 2.75401V4.13107H7.57384V5.50813H8.9509V4.13107H10.328V2.75401H13.0821V4.13107H14.4591V8.26226H13.0821V9.63932H11.705V11.0164H10.328V12.3934H8.9509V13.7705H7.57384V12.3934H6.19678V11.0164H4.81972V9.63932H3.44266V8.26226H2.0656V4.13107H3.44266V2.75401H6.19678Z" fill="#F8F8F8"/>
</svg>
